<svg width="512" height="512" viewBox="0 0 512 512" fill="none" xmlns="http://www.w3.org/2000/svg">
  <rect width="512" height="512" rx="112" fill="#030303"/>
  <rect width="512" height="512" rx="112" fill="url(#paint0_linear)"/>
  
  <!-- Base Loop -->
  <path d="M 236 380 L 236 414 C 236 440 276 440 276 414 L 276 380" stroke="#d4af37" stroke-width="16" stroke-linecap="round" fill="none"/>

  <!-- Taper Lever (Side) -->
  <path d="M 174 210 L 140 190" stroke="#d4af37" stroke-width="20" stroke-linecap="round" />

  <!-- Clipper Body -->
  <path d="M 196 380 L 316 380 C 330 380 340 366 338 352 L 320 180 C 318 160 300 150 280 150 L 232 150 C 212 150 194 160 192 180 L 174 352 C 172 366 182 380 196 380 Z" fill="#030303" stroke="#d4af37" stroke-width="20" stroke-linejoin="round"/>
  
  <!-- Clipper Head / Base -->
  <path d="M 190 150 L 202 100 L 310 100 L 322 150" fill="transparent" stroke="#d4af37" stroke-width="20" stroke-linejoin="round"/>
  
  <!-- Clipper Teeth (Buzz Cut Blades) -->
  <line x1="216" y1="100" x2="216" y2="64" stroke="#d4af37" stroke-width="12" stroke-linecap="round"/>
  <line x1="236" y1="100" x2="236" y2="64" stroke="#d4af37" stroke-width="12" stroke-linecap="round"/>
  <line x1="256" y1="100" x2="256" y2="64" stroke="#d4af37" stroke-width="12" stroke-linecap="round"/>
  <line x1="276" y1="100" x2="276" y2="64" stroke="#d4af37" stroke-width="12" stroke-linecap="round"/>
  <line x1="296" y1="100" x2="296" y2="64" stroke="#d4af37" stroke-width="12" stroke-linecap="round"/>
  
  <!-- Power Slider -->
  <path d="M 256 220 L 256 270" stroke="#d4af37" stroke-width="24" stroke-linecap="round"/>

  <!-- Grip Detail -->
  <path d="M 230 320 L 282 320" stroke="#d4af37" stroke-width="10" stroke-linecap="round"/>
  <path d="M 236 344 L 276 344" stroke="#d4af37" stroke-width="10" stroke-linecap="round"/>

  <defs>
    <linearGradient id="paint0_linear" x1="0" y1="0" x2="512" y2="512" gradientUnits="userSpaceOnUse">
      <stop stop-color="#d4af37" stop-opacity="0.15"/>
      <stop offset="1" stop-color="#030303" stop-opacity="0"/>
    </linearGradient>
  </defs>
</svg>